<?xml version="1.0" standalone="no"?>
<!DOCTYPE svg PUBLIC "-//W3C//DTD SVG 20010904//EN"
 "http://www.w3.org/TR/2001/REC-SVG-20010904/DTD/svg10.dtd">
<svg version="1.0" xmlns="http://www.w3.org/2000/svg"
 width="942.000000pt" height="942.000000pt" viewBox="0 0 942.000000 942.000000"
 preserveAspectRatio="xMidYMid meet">
<metadata>
Created by potrace 1.11, written by Peter Selinger 2001-2013
</metadata>
<g transform="translate(0.000000,942.000000) scale(0.100000,-0.100000)"
fill="#000000" stroke="none">
<path d="M1980 6945 l0 -565 265 0 265 0 0 -1870 0 -1870 -265 0 -265 0 0
-575 0 -575 1368 0 c1457 0 1591 3 1907 46 661 88 1192 298 1625 644 95 75
292 272 370 370 280 352 458 751 558 1255 20 98 24 122 37 235 4 30 9 66 11
80 21 135 25 646 5 810 -53 445 -177 822 -386 1174 -421 708 -1172 1189 -2100
1346 -332 56 -249 53 -1882 57 l-1513 4 0 -566z m3050 -910 l0 -415 -375 0
-375 0 0 415 0 415 375 0 375 0 0 -415z m20 -2702 c0 -343 -4 -471 -15 -546
-47 -310 -190 -493 -437 -556 -40 -10 -102 -22 -138 -26 l-65 -6 -57 154 c-32
86 -58 159 -58 164 0 5 30 15 66 22 129 24 240 104 285 208 17 41 34 118 43
201 l4 42 -199 0 -199 0 0 395 0 395 385 0 385 0 0 -447z"/>
</g>
</svg>
